<svg id="Lager_1" data-name="Lager 1" xmlns="http://www.w3.org/2000/svg" viewBox="0 0 486.29 436.97"><defs><style>.cls-1,.cls-5{fill:#39b54a;}.cls-2{fill:#006837;}.cls-3{fill:#444;}.cls-4{fill:#fff;}.cls-5{font-size:50px;font-family:MyriadPro-Regular, Myriad Pro;}</style></defs><title>IORS IT</title><ellipse class="cls-1" cx="225.66" cy="158.13" rx="158.44" ry="158.13"/><ellipse class="cls-2" cx="225.66" cy="158.13" rx="132.1" ry="131.06"/><polygon class="cls-3" points="353.65 187.93 221 406.47 353.65 406.47 486.29 406.47 353.65 187.93"/><polygon class="cls-4" points="305.01 297.32 353.24 211.02 411.62 320.17 375.24 278.71 370.16 307.48 353.24 282.94 332.93 294.79 328.7 280.4 305.01 297.32"/><polygon class="cls-3" points="227.77 148.18 71 406.47 227.77 406.47 384.54 406.47 227.77 148.18"/><polygon class="cls-4" points="170.29 277.47 227.29 175.47 296.29 304.47 253.29 255.47 247.29 289.47 227.29 260.47 203.29 274.47 198.29 257.47 170.29 277.47"/><path class="cls-4" d="M691,141" transform="translate(-439.71 -219.53)"/><polygon class="cls-3" points="113.65 219.23 227.29 406.47 113.65 406.47 0 406.47 113.65 219.23"/><polygon class="cls-4" points="155.31 312.96 113.99 239.02 63.98 332.53 95.15 297.01 99.5 321.66 113.99 300.63 131.39 310.78 135.02 298.46 155.31 312.96"/><text class="cls-5" transform="translate(154.96 364.47)">IORS IT</text></svg>